<svg xmlns="http://www.w3.org/2000/svg" xmlns:xlink="http://www.w3.org/1999/xlink" viewBox="0 0 100.71 100.71"><defs><clipPath id="clip-path" transform="translate(-9.17 -9.17)"><rect width="119.06" height="119.06" fill="none"/></clipPath></defs><g id="Capa_2" data-name="Capa 2"><g id="Capa_1-2" data-name="Capa 1"><g clip-path="url(#clip-path)"><g clip-path="url(#clip-path)"><path d="M92.61,59.62a33.08,33.08,0,1,1-33-33,33.08,33.08,0,0,1,33.05,33m16.52-.06A49.61,49.61,0,1,1,59.56,9.92a49.66,49.66,0,0,1,49.57,49.64" transform="translate(-9.17 -9.17)" fill="#374a87" fill-rule="evenodd"/><path d="M92.61,59.62a33.08,33.08,0,1,1-33-33A33.08,33.08,0,0,1,92.61,59.62Zm16.52-.06A49.61,49.61,0,1,1,59.56,9.92,49.66,49.66,0,0,1,109.13,59.56Z" transform="translate(-9.17 -9.17)" fill="none" stroke="#fff" stroke-miterlimit="22.93" stroke-width="1.5"/><path d="M100.57,56.28a2.15,2.15,0,0,0-1.45.5,1.55,1.55,0,0,0,.07,2.27,2.2,2.2,0,0,0,1.5.39,2.16,2.16,0,0,0,1.45-.48,1.61,1.61,0,0,0-.08-2.29,2.17,2.17,0,0,0-1.49-.39m-.08-1.18a3.63,3.63,0,0,1,1.47.21,2.9,2.9,0,0,1,.8.5,2.27,2.27,0,0,1,.54.72,3.27,3.27,0,0,1,.27,1.22,2.71,2.71,0,0,1-.71,2,3,3,0,0,1-2.15.83A3,3,0,0,1,98.52,60a2.64,2.64,0,0,1-.85-2,2.7,2.7,0,0,1,.71-2,3,3,0,0,1,2.11-.82m-4-5.73L102,48l.27,1.08-3.13,3.19,3.7-.92.26,1-5.54,1.38-.28-1.12,3-3.14-3.61.9Zm1.16-3.9L99.28,44,97,44Zm-1.3,2.81-.47-1.16,1-.95L96,44.06l-1.38,0L94.16,43l6.13-.07.45,1.13Zm-1.32-8,.26,1.14a2.56,2.56,0,0,1-1.63,0,2.45,2.45,0,0,1-1.15-1.09,2.48,2.48,0,0,1-.27-2,3,3,0,0,1,1.48-1.69A3.09,3.09,0,0,1,96,36.09a2.52,2.52,0,0,1,1.65,1.28,2.36,2.36,0,0,1,.32,1.78,2.23,2.23,0,0,1-.62,1l-.81-.85a1.14,1.14,0,0,0,.4-.72,1.23,1.23,0,0,0-.17-.8,1.25,1.25,0,0,0-.91-.66,2.18,2.18,0,0,0-1.47.39,2.33,2.33,0,0,0-1.14,1.11,1.28,1.28,0,0,0,.1,1.11,1.17,1.17,0,0,0,.65.53,1.67,1.67,0,0,0,1,0M89.69,36l4.44-3.59.72.9-4.43,3.59Zm-1-6.08.59.61a4.36,4.36,0,0,0,.77.7.66.66,0,0,0,.39.06.8.8,0,0,0,.62-.65.68.68,0,0,0-.14-.47c0-.07-.25-.28-.57-.61l-.62-.65Zm-3.18,1.45,4.11-4,1.68,1.75a4,4,0,0,1,.82,1.06,1.32,1.32,0,0,1,.07.86,1.76,1.76,0,0,1-.48.8,1.55,1.55,0,0,1-1,.47,1.84,1.84,0,0,1-1.17-.45,2.75,2.75,0,0,1,.09.78,8.87,8.87,0,0,1-.21,1.11L89.1,35l-1-1,.32-1.46a9.24,9.24,0,0,0,.18-1,.89.89,0,0,0-.07-.41,2.16,2.16,0,0,0-.36-.46l-.16-.17-1.71,1.65ZM81,27.78l3.51-4.49,3.34,2.6-.6.76-2.42-1.89-.78,1,2.26,1.77-.6.75-2.25-1.76-1,1.23,2.51,2-.59.76Zm-6.25-3.45,2.59-5.08,1.54.78L78,24l2.68-3,1.54.78-2.59,5.09-1-.49,2-4-3.05,3.49-1-.51,1-4.51-2,4Zm-2.27-3.2-.1-2.26L71,20.65Zm1.32,2.8-1.2-.38-.07-1.39-2.17-.71-.85,1.09-1.16-.38,3.88-4.74,1.16.38Zm-9.46-5.7.85.1a4.33,4.33,0,0,0,1,.06.62.62,0,0,0,.35-.2.73.73,0,0,0,.16-.41.64.64,0,0,0-.09-.48.74.74,0,0,0-.41-.28l-.83-.12-.89-.11Zm-1.54,3.13.69-5.66,2.41.29a4.1,4.1,0,0,1,1.3.32,1.27,1.27,0,0,1,.59.62,1.59,1.59,0,0,1,.14.92,1.53,1.53,0,0,1-.5,1,1.86,1.86,0,0,1-1.19.38,2.7,2.7,0,0,1,.56.56,5.77,5.77,0,0,1,.53,1L67.9,22l-1.37-.16-.67-1.34a8.41,8.41,0,0,0-.5-.9A.92.92,0,0,0,65,19.3a1.93,1.93,0,0,0-.57-.14l-.23,0L64,21.5ZM57,21.28l-.1-5.71,4.23-.07v1l-3.07.06,0,1.26L61,17.73l0,1-2.87,0,0,1.56,3.19-.06,0,1ZM53,21.76l-.83-4.67-1.66.3-.17-.95,4.47-.79.16,1-1.66.29.82,4.67Zm-7.17,2L44,18.31,45.1,18l3.4,2.9-1.17-3.62,1-.33,1.77,5.43-1.1.35-3.34-2.82,1.15,3.54Zm-2.49,1.15L41,19.68l1-.47,2.32,5.21ZM33.09,28.06a2.1,2.1,0,0,0,1.25.88,1.45,1.45,0,0,0,1.21-.31,1.44,1.44,0,0,0,.58-1.08,2.73,2.73,0,0,0-1.81-2.34,1.61,1.61,0,0,0-1.8,1.42,2.15,2.15,0,0,0,.57,1.43m-.92.76a3.71,3.71,0,0,1-.69-1.31,2.53,2.53,0,0,1-.06-1,2.16,2.16,0,0,1,.26-.86,3,3,0,0,1,.83-.93,2.67,2.67,0,0,1,2.07-.63,3,3,0,0,1,1.94,1.25,3,3,0,0,1,.74,2.17A3,3,0,0,1,34.08,30a3,3,0,0,1-1.91-1.22m0,4-3.89-4.18.84-.78L33,32Zm-4.25,1.63-.75-.6,1.56-1.93,1.77,1.43a3.09,3.09,0,0,1-.18,1.2,3.86,3.86,0,0,1-.67,1.25,3.11,3.11,0,0,1-1.28,1,2.35,2.35,0,0,1-1.46.1,3.39,3.39,0,0,1-1.39-.7,3.27,3.27,0,0,1-1-1.28,2.54,2.54,0,0,1-.14-1.52A3,3,0,0,1,25,32.12a2.74,2.74,0,0,1,1.39-1,2,2,0,0,1,1.45.18l-.56,1a1.17,1.17,0,0,0-.8-.06,1.34,1.34,0,0,0-.71.49A1.55,1.55,0,0,0,25.39,34a2,2,0,0,0,.83,1.24,2.2,2.2,0,0,0,1.47.61,1.51,1.51,0,0,0,1.14-.6,2.12,2.12,0,0,0,.34-.65,2.74,2.74,0,0,0,.13-.71l-.56-.45ZM25,42.87,20,40l2.11-3.66.84.48L21.44,39.5l1.09.63L24,37.65l.83.48-1.43,2.48,1.34.78,1.59-2.76.84.48Zm-2,4.88-5.25-2.12.43-1.07,4.36,1.76,1.07-2.66.89.36Zm-4.18,4.92a2.1,2.1,0,0,0,1.53-.08,1.43,1.43,0,0,0,.76-1,1.46,1.46,0,0,0-.21-1.22,2.24,2.24,0,0,0-1.34-.79,2.18,2.18,0,0,0-1.52.07,1.44,1.44,0,0,0-.74,1,1.46,1.46,0,0,0,.19,1.23,2.19,2.19,0,0,0,1.33.78m-.25,1.16a3.65,3.65,0,0,1-1.36-.6,2.85,2.85,0,0,1-.63-.71,2.12,2.12,0,0,1-.32-.84,3,3,0,0,1,.08-1.25,2.7,2.7,0,0,1,1.25-1.77,3,3,0,0,1,2.29-.2,3,3,0,0,1,1.92,1.25,3,3,0,0,1-1,3.91,2.93,2.93,0,0,1-2.25.21m.62,2.94.4-1.11a2.52,2.52,0,0,1,1.35.91,2.34,2.34,0,0,1,.4,1.53,2.42,2.42,0,0,1-.84,1.84,2.91,2.91,0,0,1-2.14.65,3.11,3.11,0,0,1-2.19-.81,2.51,2.51,0,0,1-.72-2,2.34,2.34,0,0,1,.68-1.68,2.21,2.21,0,0,1,1.07-.54l.23,1.15a1.12,1.12,0,0,0-.71.39,1.22,1.22,0,0,0-.29.77A1.34,1.34,0,0,0,16.86,59a2.22,2.22,0,0,0,1.46.44,2.39,2.39,0,0,0,1.56-.33,1.27,1.27,0,0,0,.49-1,1.2,1.2,0,0,0-.26-.8,1.75,1.75,0,0,0-.91-.5" transform="translate(-9.17 -9.17)" fill="#fff" fill-rule="evenodd"/><path d="M76.57,94l.89,2-.19.08a2.25,2.25,0,0,0-1.16-1,1.73,1.73,0,0,0-1.32,0,1.14,1.14,0,0,0-.64.55.85.85,0,0,0,0,.68.76.76,0,0,0,.25.33,1.53,1.53,0,0,0,.6.25,10.94,10.94,0,0,0,1.21.14,4.56,4.56,0,0,1,1.87.42,1.78,1.78,0,0,1,.82.93A1.92,1.92,0,0,1,78.8,100a2.41,2.41,0,0,1-1.32,1.18,2.55,2.55,0,0,1-.58.17,5,5,0,0,1-.74,0,.9.9,0,0,0-.4.05.55.55,0,0,0-.22.19.81.81,0,0,0-.1.37l-.17.07-.94-2.35.16-.06a3,3,0,0,0,1.39,1.19,2,2,0,0,0,1.45,0,1.23,1.23,0,0,0,.7-.61.91.91,0,0,0,0-.77.9.9,0,0,0-.29-.38,1.48,1.48,0,0,0-.52-.25,5.27,5.27,0,0,0-1-.14,8.4,8.4,0,0,1-1.51-.22,2.49,2.49,0,0,1-.83-.42,1.84,1.84,0,0,1-.49-2.21,2,2,0,0,1,1.16-1.07,2.72,2.72,0,0,1,.62-.17,3,3,0,0,1,.6,0,1.57,1.57,0,0,0,.5,0,.22.22,0,0,0,.15-.15.77.77,0,0,0,0-.4Zm-7.63,3a1.51,1.51,0,0,0-1.13,1.25,4.89,4.89,0,0,0,.16,2.24,4.31,4.31,0,0,0,1.19,2.32,1.4,1.4,0,0,0,1.28.27,1.38,1.38,0,0,0,.77-.45,2,2,0,0,0,.41-1.14,5.5,5.5,0,0,0-.2-1.82,6.17,6.17,0,0,0-.72-1.86,2,2,0,0,0-.84-.76,1.51,1.51,0,0,0-.92-.05m-.14-.29a3.33,3.33,0,0,1,4.33,2.45A3.63,3.63,0,0,1,73,101.5a3.75,3.75,0,0,1-5.41,1.41,3.52,3.52,0,0,1-1.31-2A3.33,3.33,0,0,1,68.8,96.7m-7.22,1.7.25,2.92.28,0a3.57,3.57,0,0,0,1-.22,1,1,0,0,0,.49-.5,1.68,1.68,0,0,0,.12-.87,1.57,1.57,0,0,0-.46-1.1,1.58,1.58,0,0,0-1.18-.26Zm.28,3.27.17,1.87a2.05,2.05,0,0,0,.12.67.5.5,0,0,0,.26.21,1.82,1.82,0,0,0,.63,0l0,.18-3.42.3,0-.18a1.7,1.7,0,0,0,.62-.14.52.52,0,0,0,.22-.25,2.35,2.35,0,0,0,0-.68l-.38-4.33a2.21,2.21,0,0,0-.12-.68.48.48,0,0,0-.26-.2,1.42,1.42,0,0,0-.63,0l0-.19L62.16,98a6.33,6.33,0,0,1,1.78,0,1.71,1.71,0,0,1,1,.54,1.68,1.68,0,0,1,.45,1,1.6,1.6,0,0,1-.43,1.27,2.27,2.27,0,0,1-.91.54l1.81,2.12a3.24,3.24,0,0,0,.49.5.91.91,0,0,0,.48.13l0,.18-2.1.18-2.42-2.85ZM58,104.48l0,.18-3.49-.3,0-.19.22,0a.91.91,0,0,0,.48-.06.41.41,0,0,0,.21-.22,1.78,1.78,0,0,0,.11-.61l.39-4.39a2.17,2.17,0,0,0,0-.65.5.5,0,0,0-.2-.24.85.85,0,0,0-.44-.13l-.22,0,0-.19,3.49.31,0,.18-.22,0a1,1,0,0,0-.48.06.52.52,0,0,0-.22.22,2.18,2.18,0,0,0-.11.62l-.38,4.39a2.09,2.09,0,0,0,0,.64.5.5,0,0,0,.2.24.85.85,0,0,0,.44.14Zm-6.51-2.82L51,99.21l-1.45,2.07Zm.09.4-2.32-.46-.4.59a1.58,1.58,0,0,0-.24.5.43.43,0,0,0,.14.45,2.09,2.09,0,0,0,.63.25l0,.17-2.19-.42,0-.18a1,1,0,0,0,.64-.18,4,4,0,0,0,.75-.88L52,97.11h.1L53.39,103a3.43,3.43,0,0,0,.37,1.07.8.8,0,0,0,.43.27l0,.18L51,103.88l0-.18.13,0a1,1,0,0,0,.56,0,.26.26,0,0,0,.15-.2,1.15,1.15,0,0,0,0-.19s0-.16-.08-.39Zm-6.4-4.12,1.08,3.61a3.7,3.7,0,0,0,.48,1.11,1,1,0,0,0,.45.35l-.07.17-3.23-1.31.07-.16a1,1,0,0,0,.43.06.22.22,0,0,0,.16-.13,1.83,1.83,0,0,0-.13-.9l-.7-2.37-.31.1-.68,1.7a2.19,2.19,0,0,0-.19.63.51.51,0,0,0,.13.28,1.17,1.17,0,0,0,.46.29l-.06.17-3.14-1.26.07-.17.21.08a1,1,0,0,0,.47.08.41.41,0,0,0,.27-.15,1.72,1.72,0,0,0,.29-.55l1.65-4.09a2.16,2.16,0,0,0,.19-.62.48.48,0,0,0-.12-.29.93.93,0,0,0-.38-.25l-.21-.08.07-.18,3.09,1.25-.06.17a1.12,1.12,0,0,0-.52-.1.5.5,0,0,0-.28.14,2.29,2.29,0,0,0-.29.56L43.61,98l3.06-.94c.42-.13.67-.27.73-.42a.32.32,0,0,0-.09-.36,1.71,1.71,0,0,0-.47-.27l.07-.17,2.42,1-.07.17a1.52,1.52,0,0,0-.55-.09,9.14,9.14,0,0,0-1.11.29Z" transform="translate(-9.17 -9.17)" fill="#f7da43" fill-rule="evenodd"/><path d="M59.53,26.73a32.89,32.89,0,1,1-32.9,32.89,32.9,32.9,0,0,1,32.9-32.89" transform="translate(-9.17 -9.17)" fill="#fff" fill-rule="evenodd"/><polygon points="50.2 17.37 24.73 71.32 75.73 71.32 50.2 17.37" fill="#947da8" fill-rule="evenodd"/><path d="M48.91,41.8l-.83-.43a1.74,1.74,0,0,0,.16.68.59.59,0,0,0,.23.26.39.39,0,0,0,.26,0,.28.28,0,0,0,.17-.15.59.59,0,0,0,0-.38m.19.09a1.51,1.51,0,0,1,0,1,.55.55,0,0,1-.32.28.52.52,0,0,1-.42,0,.75.75,0,0,1-.39-.5,5,5,0,0,1-.06-1.37l-.25-.12a1,1,0,0,0-.37-.15.26.26,0,0,0-.18.05.29.29,0,0,0-.15.16.55.55,0,0,0-.07.32.17.17,0,0,0,.08.13s.09,0,.17,0a.48.48,0,0,1,.27,0,.32.32,0,0,1,.17.21.4.4,0,0,1,0,.3.47.47,0,0,1-.25.23.33.33,0,0,1-.29,0,.6.6,0,0,1-.29-.33,1.13,1.13,0,0,1-.05-.56,2,2,0,0,1,.2-.61,1.08,1.08,0,0,1,.43-.48.82.82,0,0,1,.46-.1,2.16,2.16,0,0,1,.53.23l1,.49.22.09a.11.11,0,0,0,.08,0,.1.1,0,0,0,.06,0,.23.23,0,0,0,0-.19l.1,0a1,1,0,0,1,.15.42.68.68,0,0,1-.08.36.53.53,0,0,1-.27.28.44.44,0,0,1-.37,0M45,41.67,45.47,43l-.12.22-.76-.77Zm1,1,2,1a.61.61,0,0,0,.36.11c.07,0,.14-.08.21-.19l.1,0L48,45,47.87,45a.38.38,0,0,0,0-.29.76.76,0,0,0-.3-.22l-1.44-.73a.64.64,0,0,0-.37-.11c-.07,0-.14.08-.2.19l-.1-.05Zm-2.28,4.46.33.16a1.56,1.56,0,0,1-.12-.53,1,1,0,0,1,.11-.43.74.74,0,0,1,.31-.34.8.8,0,0,1,.47-.08,1.8,1.8,0,0,1-.14-.58,1,1,0,0,1,.1-.46.75.75,0,0,1,.33-.35.73.73,0,0,1,.41-.06,2,2,0,0,1,.6.24l1,.52a1,1,0,0,0,.38.13.42.42,0,0,0,.2-.17l.09,0-.65,1.28-.09,0a.31.31,0,0,0,0-.28.76.76,0,0,0-.3-.21l-1.06-.55a2,2,0,0,0-.44-.18.24.24,0,0,0-.17,0,.25.25,0,0,0-.12.11.48.48,0,0,0,0,.27,1.37,1.37,0,0,0,.13.37l1.33.68a.79.79,0,0,0,.36.12c.08,0,.16-.06.22-.18l.1.05L46.45,48l-.1,0a.34.34,0,0,0,0-.19.23.23,0,0,0-.07-.14,1,1,0,0,0-.27-.16L45,46.91a3.67,3.67,0,0,0-.44-.19.29.29,0,0,0-.18,0,.22.22,0,0,0-.11.1.38.38,0,0,0,0,.23,1.2,1.2,0,0,0,.14.4l1.33.68a1,1,0,0,0,.37.13.32.32,0,0,0,.21-.17l.1.05-.66,1.28-.09-.05a.34.34,0,0,0,0-.28s-.13-.12-.32-.22l-1.4-.71a.75.75,0,0,0-.37-.13c-.07,0-.13.07-.2.17l-.1,0Zm-1.19,2.61a.34.34,0,0,0,0,.28.78.78,0,0,0,.33.34c.19.12.47.27.82.45a3.68,3.68,0,0,0,.55.24.61.61,0,0,0,.35,0A.33.33,0,0,0,44.8,51a.31.31,0,0,0,0-.23.46.46,0,0,0-.18-.27,7,7,0,0,0-1-.57,2.69,2.69,0,0,0-.64-.26.48.48,0,0,0-.32,0,.36.36,0,0,0-.15.15m-.19-.08a1.31,1.31,0,0,1,.47-.52,1.19,1.19,0,0,1,.69-.18,1.91,1.91,0,0,1,.75.2,1.57,1.57,0,0,1,.74.72,1.29,1.29,0,0,1-.86,1.77,1.74,1.74,0,0,1-1.83-1,1.13,1.13,0,0,1,0-1m-1.55,3.2.32.17a1.62,1.62,0,0,1-.11-.52.94.94,0,0,1,.1-.43.64.64,0,0,1,.34-.33.74.74,0,0,1,.44,0,3.2,3.2,0,0,1,.6.25l1,.5a1,1,0,0,0,.38.13c.07,0,.13-.07.2-.17l.1,0-.64,1.26-.1-.05a.29.29,0,0,0,0-.26.85.85,0,0,0-.31-.21L42,52.69a1.75,1.75,0,0,0-.39-.18.31.31,0,0,0-.17,0,.27.27,0,0,0-.11.1.62.62,0,0,0,.11.59l1.33.68a.75.75,0,0,0,.38.13.32.32,0,0,0,.19-.15l.09,0-.64,1.25-.09,0a.39.39,0,0,0,0-.28s-.13-.12-.32-.22L41,53.93a.75.75,0,0,0-.37-.13c-.07,0-.13.07-.2.17l-.1,0Zm-1.18,2.6a.36.36,0,0,0,0,.29.82.82,0,0,0,.34.33c.19.12.46.27.82.46a5,5,0,0,0,.55.23.61.61,0,0,0,.35,0,.35.35,0,0,0,.21-.17.31.31,0,0,0,0-.23.46.46,0,0,0-.18-.26,6.74,6.74,0,0,0-1-.58,2.69,2.69,0,0,0-.64-.26.55.55,0,0,0-.32,0,.36.36,0,0,0-.15.15m-.19-.08a1.24,1.24,0,0,1,.47-.52,1.15,1.15,0,0,1,.69-.18,1.82,1.82,0,0,1,.74.2,1.59,1.59,0,0,1,.75.72,1.18,1.18,0,0,1,0,1.11,1.16,1.16,0,0,1-.83.66,1.64,1.64,0,0,1-1.06-.16,1.66,1.66,0,0,1-.77-.78,1.12,1.12,0,0,1,0-1M37.59,57l.9.47.3-.59.27.13-.3.59,1.52.78a1.47,1.47,0,0,0,.29.12.23.23,0,0,0,.14,0s.07,0,.08-.07a.47.47,0,0,0-.09-.46l.09,0a.81.81,0,0,1,.16,1,.7.7,0,0,1-.34.34.63.63,0,0,1-.4,0,2.57,2.57,0,0,1-.5-.22l-1.33-.68-.17.32-.09,0a3.88,3.88,0,0,0-.2-.83,3.69,3.69,0,0,0-.38-.7Zm.08,2.07,1.94,1a.8.8,0,0,0,.38.13c.07,0,.13-.07.2-.17l.09.05-.51,1-.33-.17a1.59,1.59,0,0,1,.13.51,1,1,0,0,1-.11.44.64.64,0,0,1-.32.31.76.76,0,0,1-.41.07A3,3,0,0,1,38.1,62l-1-.5a.84.84,0,0,0-.38-.12.34.34,0,0,0-.2.16l-.09,0,.51-1,1.69.86a1.51,1.51,0,0,0,.36.15.25.25,0,0,0,.15,0,.23.23,0,0,0,.11-.11.31.31,0,0,0,0-.19,1.19,1.19,0,0,0-.15-.4l-1.32-.67a.75.75,0,0,0-.37-.13c-.07,0-.13.07-.2.17l-.1,0Zm-1,5-1.5-.09,1,1.18ZM37,64l-.65,1.27.27.33a.93.93,0,0,0,.25.22.28.28,0,0,0,.29,0,1.17,1.17,0,0,0,.24-.32l.1,0-.61,1.2-.1,0a.55.55,0,0,0,0-.4,2.17,2.17,0,0,0-.38-.59L34.17,63l0-.05,3.6.21a2,2,0,0,0,.68,0,.48.48,0,0,0,.23-.2l.09.05-.88,1.73-.1,0,0-.07a.62.62,0,0,0,.09-.32.14.14,0,0,0-.1-.12l-.1,0-.24,0Z" transform="translate(-9.17 -9.17)" fill="#1d1d1b" fill-rule="evenodd"/><path d="M80.52,63.91l.84-.39a1.71,1.71,0,0,0-.63-.3.49.49,0,0,0-.34,0,.34.34,0,0,0-.18.19.28.28,0,0,0,0,.22.6.6,0,0,0,.3.25m-.2.09a1.53,1.53,0,0,1-.79-.65.56.56,0,0,1,0-.42.55.55,0,0,1,.29-.31.81.81,0,0,1,.63,0,5.45,5.45,0,0,1,1.11.81l.26-.12a1.16,1.16,0,0,0,.34-.2.25.25,0,0,0,.08-.17.41.41,0,0,0,0-.22.63.63,0,0,0-.21-.26.21.21,0,0,0-.15,0,.34.34,0,0,0-.11.14.34.34,0,0,1-.17.21.36.36,0,0,1-.27,0,.35.35,0,0,1-.21-.22.39.39,0,0,1,0-.33.33.33,0,0,1,.18-.23.63.63,0,0,1,.45,0,1.17,1.17,0,0,1,.47.3,2.12,2.12,0,0,1,.35.53,1,1,0,0,1,.11.64.76.76,0,0,1-.21.42,2,2,0,0,1-.5.28l-1,.45a.85.85,0,0,0-.21.11.15.15,0,0,0,0,.07.08.08,0,0,0,0,.07s.07.08.16.1l0,.11a1,1,0,0,1-.41-.14.62.62,0,0,1-.24-.29.56.56,0,0,1-.06-.39.49.49,0,0,1,.24-.28m1.26-2.93-2,.91a.65.65,0,0,0-.31.22.4.4,0,0,0,0,.28l-.09.05-.63-1.37.1,0a.32.32,0,0,0,.21.2.64.64,0,0,0,.36-.09l1.47-.68c.18-.08.28-.15.31-.22a.4.4,0,0,0,0-.28l.1,0Zm1-.94a.43.43,0,0,1,0,.35.51.51,0,0,1-.24.26.5.5,0,0,1-.36,0,.49.49,0,0,1-.25-.24.43.43,0,0,1,0-.35A.51.51,0,0,1,82,59.9a.47.47,0,0,1,.35,0,.41.41,0,0,1,.26.24m-3.55.42,0,.11a1.38,1.38,0,0,1-.7-.22,1.17,1.17,0,0,1-.42-.49,1.06,1.06,0,0,1,0-1,1.55,1.55,0,0,1,.77-.72,1.65,1.65,0,0,1,1-.14,1.16,1.16,0,0,1,.89.7,1,1,0,0,1,.09.71.63.63,0,0,1-.34.43.37.37,0,0,1-.29,0,.36.36,0,0,1-.2-.2.42.42,0,0,1,0-.31.67.67,0,0,1,.32-.3c.11-.07.18-.13.2-.19a.19.19,0,0,0,0-.18.31.31,0,0,0-.24-.16,1.22,1.22,0,0,0-.7.16,2.39,2.39,0,0,0-.63.42,1.22,1.22,0,0,0-.34.53.6.6,0,0,0,.22.63,1.41,1.41,0,0,0,.37.18m0-5-.33.15a1.79,1.79,0,0,1,.48.23.89.89,0,0,1,.27.34.66.66,0,0,1,.05.47.67.67,0,0,1-.24.37,3,3,0,0,1-.57.32l-1,.45c-.2.09-.31.16-.34.22a.33.33,0,0,0,0,.26l-.1,0-.58-1.27.09,0a.3.3,0,0,0,.22.15.88.88,0,0,0,.35-.11l1.12-.51a1.92,1.92,0,0,0,.38-.21.22.22,0,0,0,.09-.14.22.22,0,0,0,0-.14c-.07-.16-.25-.25-.53-.29l-1.35.62a.83.83,0,0,0-.34.22.32.32,0,0,0,0,.24l-.09.05-.59-1.28.1-.05a.32.32,0,0,0,.21.18c.05,0,.17,0,.37-.11l1.43-.65a.77.77,0,0,0,.33-.22.39.39,0,0,0,0-.26l.1-.05ZM77.16,54a2.5,2.5,0,0,0,.57-.32.54.54,0,0,0,.18-.26.21.21,0,0,0,0-.17.28.28,0,0,0-.24-.17,1.42,1.42,0,0,0-.74.14l-.09,0Zm.12.75-.63-1.39A1.42,1.42,0,0,0,76,54a.63.63,0,0,0,0,.55.61.61,0,0,0,.23.25,1.28,1.28,0,0,0,.46.13l0,.12a1.72,1.72,0,0,1-.8-.18,1.11,1.11,0,0,1-.44-.49,1.06,1.06,0,0,1,0-1,1.72,1.72,0,0,1,.76-.63,1.61,1.61,0,0,1,1.16-.12,1.12,1.12,0,0,1,.74.63.92.92,0,0,1,0,.81,1.54,1.54,0,0,1-.79.73M78.36,51l-3.14,1.43a.65.65,0,0,0-.31.22.35.35,0,0,0,0,.28l-.09,0-.63-1.37.1,0a.32.32,0,0,0,.21.2.6.6,0,0,0,.35-.09l2.62-1.2c.17-.08.28-.15.31-.22a.36.36,0,0,0,0-.28l.1,0Zm-3-1a2.5,2.5,0,0,0,.57-.32.48.48,0,0,0,.18-.26.21.21,0,0,0,0-.17.28.28,0,0,0-.24-.17,1.37,1.37,0,0,0-.73.14l-.1,0Zm.12.75-.63-1.39a1.42,1.42,0,0,0-.68.64.63.63,0,0,0,0,.55.59.59,0,0,0,.22.25,1.28,1.28,0,0,0,.46.13l0,.12a1.72,1.72,0,0,1-.8-.18,1.08,1.08,0,0,1-.44-.5,1,1,0,0,1,0-1,1.6,1.6,0,0,1,.76-.63,1.51,1.51,0,0,1,1.16-.12,1.12,1.12,0,0,1,.74.63,1,1,0,0,1,0,.81,1.61,1.61,0,0,1-.8.73m-1.86-2.21,0,.11a1.38,1.38,0,0,1-.7-.22,1.11,1.11,0,0,1-.42-.49,1.06,1.06,0,0,1,0-1,1.53,1.53,0,0,1,.78-.72,1.68,1.68,0,0,1,1-.14,1.16,1.16,0,0,1,.89.7,1,1,0,0,1,.09.71.59.59,0,0,1-.34.43.31.31,0,0,1-.28,0,.4.4,0,0,1-.22-.51.69.69,0,0,1,.31-.3.41.41,0,0,0,.2-.19.2.2,0,0,0,0-.17.29.29,0,0,0-.24-.16,1.25,1.25,0,0,0-.7.15,2.13,2.13,0,0,0-.63.43,1.12,1.12,0,0,0-.35.53.65.65,0,0,0,.22.62,1.41,1.41,0,0,0,.37.18M73,44.82l-.63.82a2.74,2.74,0,0,0-.39.61.41.41,0,0,0,0,.24l-.09,0-.65-1.41.1,0c.06.1.1.17.14.18a.09.09,0,0,0,.1,0,.54.54,0,0,0,.19-.19l.31-.41-.36-.06-.28,0-.1,0s-.08,0-.09.07a.14.14,0,0,0,0,.1.58.58,0,0,0,.06.17l-.1,0-.45-1,.1,0a.7.7,0,0,0,.25.29,2.73,2.73,0,0,0,.74.2l.4.06.6-.8a1.89,1.89,0,0,0,.34-.54.39.39,0,0,0,0-.28l.1,0,.64,1.4-.09.05,0-.07-.11-.12h-.08s-.05,0-.07.06l-.11.14-.28.37.19,0a1.22,1.22,0,0,0,.52,0,.15.15,0,0,0,.07-.1.48.48,0,0,0,0-.19l.1,0,.41.89-.1,0a.72.72,0,0,0-.25-.27,1.64,1.64,0,0,0-.52-.15Zm.13-4.73-1.49.68,0,.08a.62.62,0,0,0,.45.4,1.43,1.43,0,0,0,.73-.09l.05.1L71,42.14l0-.11a1.62,1.62,0,0,0,.46-.37.61.61,0,0,0,.15-.36.88.88,0,0,0-.11-.43l-1,.47a2.31,2.31,0,0,0-.36.19.26.26,0,0,0-.07.15.59.59,0,0,0,.06.25l.1.22a1.31,1.31,0,0,0,1.55.82l0,.1-1.24.37L69,40.28l.1-.05.06.12a.53.53,0,0,0,.17.23.27.27,0,0,0,.18.05,1.08,1.08,0,0,0,.35-.13l2.41-1.1.3-.15a.28.28,0,0,0,.1-.17.55.55,0,0,0,0-.32l-.06-.12.1,0,1.41,3.06-1.08.5,0-.1a1.49,1.49,0,0,0,.47-.49.92.92,0,0,0,.07-.51,3.07,3.07,0,0,0-.21-.59Z" transform="translate(-9.17 -9.17)" fill="#1d1d1b" fill-rule="evenodd"/><path d="M72.46,85.2c-.14-.29-.32-.43-.53-.43a.29.29,0,0,0-.19.06.68.68,0,0,0-.17.33,2.49,2.49,0,0,0-.07.71,3,3,0,0,0,.07.78.73.73,0,0,0,.21.36.29.29,0,0,0,.19.06c.17,0,.34-.14.49-.41Zm.84-1.89v3.2a3,3,0,0,0,0,.38.27.27,0,0,0,.09.15.59.59,0,0,0,.24.06v.1l-1.18.22V87a1.44,1.44,0,0,1-.37.35.78.78,0,0,1-.37.09.93.93,0,0,1-.84-.47,1.68,1.68,0,0,1-.26-1,2,2,0,0,1,.16-.8,1.16,1.16,0,0,1,.42-.54,1,1,0,0,1,.58-.18.78.78,0,0,1,.35.08,1,1,0,0,1,.33.27V84a1.49,1.49,0,0,0,0-.38.28.28,0,0,0-.11-.13.58.58,0,0,0-.27,0v-.13Zm-4.21,3.4v-.93a1.81,1.81,0,0,0-.54.46.5.5,0,0,0-.11.32.36.36,0,0,0,.09.24.29.29,0,0,0,.21.08.59.59,0,0,0,.35-.17m0,.22a1.48,1.48,0,0,1-.92.45.51.51,0,0,1-.39-.16.5.5,0,0,1-.16-.39.77.77,0,0,1,.27-.57,5.26,5.26,0,0,1,1.2-.67v-.28a1.38,1.38,0,0,0,0-.4.25.25,0,0,0-.13-.14.37.37,0,0,0-.21-.06.61.61,0,0,0-.32.08.17.17,0,0,0-.08.13.25.25,0,0,0,.09.15.42.42,0,0,1,.11.25.34.34,0,0,1-.11.25.43.43,0,0,1-.28.1.5.5,0,0,1-.32-.11.37.37,0,0,1-.12-.27.59.59,0,0,1,.17-.41,1.06,1.06,0,0,1,.47-.3,2.19,2.19,0,0,1,.63-.1,1.09,1.09,0,0,1,.63.17.74.74,0,0,1,.29.36,2.15,2.15,0,0,1,0,.58v1.07a1.23,1.23,0,0,0,0,.24A.15.15,0,0,0,70,87L70,87a.21.21,0,0,0,.16-.11l.09.07a1.06,1.06,0,0,1-.31.32.61.61,0,0,1-.36.1.58.58,0,0,1-.37-.11.52.52,0,0,1-.16-.34M66,85.2c-.15-.29-.33-.43-.54-.43a.28.28,0,0,0-.18.06.77.77,0,0,0-.18.33,2.49,2.49,0,0,0-.07.71,2.94,2.94,0,0,0,.08.78.73.73,0,0,0,.21.36.27.27,0,0,0,.19.06c.17,0,.34-.14.49-.41Zm.83-1.89v3.2a2.27,2.27,0,0,0,0,.38A.2.2,0,0,0,67,87a.5.5,0,0,0,.23.06v.1L66,87.42V87a1.45,1.45,0,0,1-.38.35.75.75,0,0,1-.37.09.94.94,0,0,1-.84-.47,1.68,1.68,0,0,1-.25-1,2,2,0,0,1,.15-.8,1.25,1.25,0,0,1,.43-.54,1,1,0,0,1,.58-.18.78.78,0,0,1,.35.08,1.22,1.22,0,0,1,.33.27V84a1.3,1.3,0,0,0,0-.38.24.24,0,0,0-.11-.13.51.51,0,0,0-.26,0v-.13Zm-3.31,1.25v2.2a.71.71,0,0,0,.07.38.34.34,0,0,0,.27.09v.11H62.4v-.11a.37.37,0,0,0,.27-.1.69.69,0,0,0,.06-.37V85.14a.6.6,0,0,0-.07-.37.33.33,0,0,0-.26-.1v-.11Zm-.41-1.34a.44.44,0,0,1,.33.13.49.49,0,0,1,.13.33.48.48,0,0,1-.46.46.45.45,0,0,1-.33-.14.48.48,0,0,1-.13-.32.49.49,0,0,1,.13-.33.44.44,0,0,1,.33-.13m-2.22,1.34v.63a2.32,2.32,0,0,1,.49-.57.72.72,0,0,1,.4-.14.33.33,0,0,1,.26.1.39.39,0,0,1,.1.29.48.48,0,0,1-.09.31.34.34,0,0,1-.24.11.39.39,0,0,1-.27-.1c-.08-.07-.12-.11-.14-.11l-.07,0a.27.27,0,0,0-.16.06.65.65,0,0,0-.18.29,1.91,1.91,0,0,0-.1.64v.8a.53.53,0,0,0,0,.22.23.23,0,0,0,.1.12.65.65,0,0,0,.24,0v.11H59.8v-.11a.3.3,0,0,0,.24-.1.78.78,0,0,0,.07-.44V85.15a.88.88,0,0,0,0-.3.23.23,0,0,0-.08-.12.43.43,0,0,0-.2-.06v-.11Zm-2.66,2.15v-.93a1.64,1.64,0,0,0-.53.46.51.51,0,0,0-.12.32.33.33,0,0,0,.1.24.29.29,0,0,0,.21.08.6.6,0,0,0,.34-.17m0,.22a1.46,1.46,0,0,1-.91.45.54.54,0,0,1-.4-.16.53.53,0,0,1-.15-.39.77.77,0,0,1,.27-.57,5.13,5.13,0,0,1,1.19-.67v-.28a1.54,1.54,0,0,0,0-.4.35.35,0,0,0-.13-.14.43.43,0,0,0-.22-.06.57.57,0,0,0-.31.08.15.15,0,0,0-.08.13.28.28,0,0,0,.08.15.37.37,0,0,1,.11.25.33.33,0,0,1-.1.25.46.46,0,0,1-.29.1.47.47,0,0,1-.31-.11.39.39,0,0,1-.13-.27.64.64,0,0,1,.17-.41,1.12,1.12,0,0,1,.47-.3,2.3,2.3,0,0,1,.63-.1,1,1,0,0,1,.63.17.83.83,0,0,1,.3.36,2.31,2.31,0,0,1,0,.58v1.07a1.23,1.23,0,0,0,0,.24.16.16,0,0,0,0,.08l.07,0c.05,0,.1,0,.16-.11l.08.07a1.17,1.17,0,0,1-.3.32.66.66,0,0,1-.37.1.6.6,0,0,1-.37-.11.52.52,0,0,1-.16-.34M55.22,85.2c-.14-.29-.32-.43-.53-.43a.29.29,0,0,0-.19.06.77.77,0,0,0-.18.33,3.74,3.74,0,0,0,0,1.49.73.73,0,0,0,.21.36.29.29,0,0,0,.19.06c.17,0,.34-.14.49-.41Zm.83-1.89v3.2a2.27,2.27,0,0,0,0,.38.27.27,0,0,0,.09.15.59.59,0,0,0,.24.06v.1l-1.18.22V87a1.44,1.44,0,0,1-.37.35.79.79,0,0,1-.38.09,1,1,0,0,1-.84-.47,1.77,1.77,0,0,1-.25-1,1.84,1.84,0,0,1,.16-.8,1.16,1.16,0,0,1,.42-.54,1,1,0,0,1,.58-.18.78.78,0,0,1,.35.08,1,1,0,0,1,.33.27V84a2.27,2.27,0,0,0,0-.38.28.28,0,0,0-.11-.13.58.58,0,0,0-.27,0v-.13Zm-3.3,1.25v2.2a.62.62,0,0,0,.07.38.3.3,0,0,0,.26.09v.11h-1.5v-.11a.38.38,0,0,0,.28-.1.69.69,0,0,0,.06-.37V85.14a.69.69,0,0,0-.07-.37.38.38,0,0,0-.27-.1v-.11Zm-.42-1.34a.44.44,0,0,1,.46.46.44.44,0,0,1-.13.32.45.45,0,0,1-.33.14A.43.43,0,0,1,52,84a.45.45,0,0,1-.14-.32.45.45,0,0,1,.14-.33.42.42,0,0,1,.32-.13m-1.27.09v3.45a.62.62,0,0,0,.07.38q.06.09.27.09v.11H49.9v-.11a.37.37,0,0,0,.27-.1.69.69,0,0,0,.06-.37V83.89c0-.2,0-.32-.07-.37a.33.33,0,0,0-.26-.1v-.11Zm-2.81,1.38a.35.35,0,0,0-.26.12.76.76,0,0,0-.14.45q0,.33,0,.93a3.78,3.78,0,0,0,0,.6.56.56,0,0,0,.14.32.34.34,0,0,0,.24.11.36.36,0,0,0,.22-.07.55.55,0,0,0,.16-.29,6.82,6.82,0,0,0,.06-1.14,2.58,2.58,0,0,0-.06-.69.58.58,0,0,0-.16-.28.35.35,0,0,0-.21-.06m0-.21a1.27,1.27,0,0,1,.68.19,1.22,1.22,0,0,1,.47.53,1.71,1.71,0,0,1,.16.75,1.58,1.58,0,0,1-.3,1,1.18,1.18,0,0,1-1,.48,1.11,1.11,0,0,1-1-.44A1.58,1.58,0,0,1,47,86a1.67,1.67,0,0,1,.34-1,1.15,1.15,0,0,1,1-.44m-2-1.26,0,1.34h-.12a1.44,1.44,0,0,0-.42-.81,1.11,1.11,0,0,0-.73-.31.69.69,0,0,0-.48.17.48.48,0,0,0-.12.61,1,1,0,0,0,.28.27,5.53,5.53,0,0,0,.65.35,2.73,2.73,0,0,1,1,.66,1.1,1.1,0,0,1,.24.7,1.14,1.14,0,0,1-.39.87,1.43,1.43,0,0,1-1,.37,2,2,0,0,1-.36,0l-.42-.15a.69.69,0,0,0-.24-.06.27.27,0,0,0-.16.06.37.37,0,0,0-.14.18h-.11V85.91h.11a1.73,1.73,0,0,0,.5,1,1.17,1.17,0,0,0,.81.34.73.73,0,0,0,.52-.18.56.56,0,0,0,.13-.7.92.92,0,0,0-.23-.26,4.27,4.27,0,0,0-.55-.31,4.34,4.34,0,0,1-.79-.46,1.6,1.6,0,0,1-.37-.42,1,1,0,0,1-.13-.52,1.1,1.1,0,0,1,.35-.82,1.25,1.25,0,0,1,.9-.34,1.65,1.65,0,0,1,.38,0,2.23,2.23,0,0,1,.34.13.86.86,0,0,0,.28.1.17.17,0,0,0,.12,0,.48.48,0,0,0,.08-.23Z" transform="translate(-9.17 -9.17)" fill="#1d1d1b" fill-rule="evenodd"/><polygon points="37.88 45.17 38.8 45.72 39.72 46.15 40.64 46.39 41.43 46.52 42.29 46.45 43.09 46.39 43.82 46.27 44.56 46.09 45.29 45.97 45.96 45.97 46.64 45.97 47.31 46.09 47.92 46.33 48.53 46.82 49.15 47.5 49.76 48.41 50.37 47.62 50.86 46.88 51.41 46.39 51.9 45.97 52.33 45.72 52.82 45.48 53.19 45.41 53.62 45.35 53.92 45.35 54.29 45.41 54.72 45.54 55.02 45.66 55.45 45.78 55.82 45.97 56.25 46.03 56.74 46.21 57.23 46.27 57.72 46.33 58.27 46.33 58.88 46.33 59.49 46.27 60.16 46.09 60.96 45.84 61.76 45.54 61.82 45.97 62 46.52 62.25 47.13 62.49 47.74 62.74 48.29 63.04 48.78 63.29 49.09 63.59 49.27 67.94 69.17 52.02 69.17 52.09 69.17 52.21 69.35 52.33 69.53 52.45 69.72 52.58 69.96 52.58 70.14 52.45 70.33 52.09 70.33 51.59 70.33 50.86 70.33 50.06 70.33 49.27 70.33 48.47 70.33 47.86 70.33 47.37 70.33 47.25 70.33 46.82 70.33 46.64 70.14 46.64 69.96 46.7 69.72 46.82 69.53 46.94 69.35 47.06 69.17 47.13 69.17 31.46 69.17 35.5 49.03 35.74 48.9 35.99 48.72 36.23 48.35 36.48 47.98 36.72 47.56 36.9 47.13 37.09 46.58 37.21 46.15 37.7 46.21 37.88 45.17" fill="#1d1d1b" fill-rule="evenodd"/><polygon points="35.92 49.58 32.31 67.21 32.56 67.02 32.8 66.72 33.05 66.35 33.35 65.92 33.6 65.49 33.84 65.06 34.09 64.64 34.27 64.21 36.84 48.17 36.78 48.29 36.72 48.48 36.6 48.72 36.48 48.9 36.29 49.09 36.17 49.27 36.05 49.39 35.92 49.58" fill="#b2b2b2" fill-rule="evenodd"/><polygon points="49.88 66.23 50.68 65.06 51.66 64.21 52.58 63.66 53.62 63.35 54.66 63.29 55.7 63.29 56.8 63.53 57.84 63.78 58.88 64.15 59.86 64.51 60.84 64.88 61.76 65.19 62.55 65.37 63.35 65.49 64.02 65.37 64.57 65.12 64.88 65.8 64.2 66.11 63.47 66.23 62.67 66.17 61.88 66.04 61.08 65.8 60.16 65.43 59.31 65.12 58.33 64.76 57.35 64.51 56.37 64.39 55.33 64.33 54.29 64.45 53.19 64.82 52.09 65.43 50.98 66.29 49.88 67.51 49.88 67.21 49.88 66.96 49.88 66.59 49.88 66.23" fill="#878787" fill-rule="evenodd"/><polygon points="50.13 67.76 51.23 66.66 52.27 65.8 53.31 65.25 54.35 65 55.39 64.88 56.37 64.94 57.41 65.06 58.33 65.31 59.31 65.61 60.16 65.92 61.08 66.23 61.94 66.47 62.74 66.66 63.53 66.66 64.33 66.41 65 66.11 65.19 66.29 65.37 66.53 65.55 66.84 65.8 67.2 66.04 67.51 66.29 67.82 66.53 68.12 66.84 68.37 58.08 68.37 57.9 68.06 57.59 67.82 57.29 67.57 56.92 67.45 56.43 67.2 56 67.14 55.51 67.08 55.02 67.02 54.47 67.02 53.92 67.14 53.43 67.2 52.94 67.39 52.45 67.63 52.02 67.94 51.66 68.31 51.29 68.74 51.17 68.61 51.05 68.43 50.92 68.37 50.8 68.19 50.62 68.06 50.49 67.94 50.31 67.82 50.13 67.76" fill="#878787" fill-rule="evenodd"/><polygon points="32.07 68.25 32.25 68.06 32.37 67.94 32.56 67.69 32.8 67.45 32.99 67.2 33.17 66.96 33.29 66.72 33.41 66.59 35.19 67.2 36.72 67.57 38.07 67.76 39.29 67.76 40.33 67.69 41.25 67.51 42.05 67.2 42.84 66.96 43.52 66.66 44.19 66.41 44.86 66.29 45.53 66.23 46.27 66.35 47 66.59 47.92 67.08 48.84 67.76 48.72 67.88 48.59 68.06 48.41 68.12 48.23 68.31 48.11 68.43 47.98 68.55 47.86 68.61 47.8 68.73 47.55 68.43 47.31 68.19 47 68 46.76 67.82 46.39 67.69 46.09 67.57 45.78 67.51 45.41 67.51 45.05 67.51 44.74 67.51 44.31 67.51 43.94 67.63 43.64 67.76 43.27 67.88 42.9 68.06 42.6 68.31 42.17 68.31 41.62 68.31 40.94 68.31 40.21 68.31 39.41 68.31 38.56 68.31 37.7 68.31 36.84 68.25 35.99 68.25 35.13 68.25 34.39 68.25 33.66 68.25 33.11 68.25 32.62 68.25 32.31 68.25 32.07 68.25" fill="#878787" fill-rule="evenodd"/><polygon points="34.46 64.64 35.01 64.88 35.5 65.06 35.99 65.25 36.41 65.43 36.84 65.55 37.21 65.61 37.58 65.68 38.01 65.68 38.31 65.68 38.68 65.61 39.11 65.55 39.41 65.43 39.84 65.25 40.21 65.12 40.64 64.94 41.07 64.7 41.49 64.45 42.05 64.27 42.6 64.08 43.27 63.9 43.94 63.78 44.62 63.66 45.29 63.59 45.96 63.66 46.64 63.78 47.25 63.96 47.86 64.27 48.35 64.7 48.78 65.19 49.15 65.8 49.39 66.59 49.51 67.51 49.45 67.51 49.33 67.57 49.27 67.57 49.15 67.63 48.84 67.27 48.6 66.96 48.29 66.66 47.98 66.41 47.62 66.17 47.25 65.98 46.88 65.8 46.45 65.74 46.02 65.61 45.53 65.61 45.05 65.61 44.49 65.74 43.94 65.86 43.33 66.11 42.66 66.35 41.98 66.66 41.49 66.96 40.94 67.08 40.33 67.2 39.72 67.2 39.11 67.2 38.5 67.2 37.82 67.2 37.21 67.08 36.6 66.96 36.05 66.9 35.5 66.72 35.01 66.59 34.58 66.47 34.21 66.41 33.84 66.29 33.66 66.17 33.84 65.8 34.09 65.37 34.33 64.94 34.46 64.64" fill="#878787" fill-rule="evenodd"/><polygon points="57.47 68.37 52.21 68.37 52.45 68.13 52.76 67.94 53.06 67.76 53.43 67.7 53.8 67.57 54.17 67.51 54.53 67.51 54.9 67.51 55.33 67.51 55.63 67.57 56 67.64 56.37 67.76 56.68 67.82 56.98 68 57.29 68.13 57.47 68.37" fill="#575756" fill-rule="evenodd"/><polygon points="43.7 68.31 44.07 68.12 44.43 68.06 44.86 68.06 45.23 68 45.66 68.06 46.02 68.06 46.27 68.19 46.58 68.37 43.7 68.31" fill="#575756" fill-rule="evenodd"/><polygon points="62 47.37 64.76 64.76 64.88 65 65.06 65.43 65.37 65.92 65.67 66.41 66.04 66.96 66.47 67.51 66.9 68 67.33 68.37 63.23 49.82 63.1 49.64 62.98 49.33 62.74 49.03 62.55 48.66 62.43 48.29 62.25 47.98 62.06 47.68 62 47.37" fill="#b2b2b2" fill-rule="evenodd"/><polygon points="37.64 55.64 37.88 56.19 38.19 56.68 38.62 57.17 39.05 57.47 39.6 57.84 40.15 58.02 40.76 58.21 41.43 58.21 41.43 58.57 41.56 59.13 41.62 59.55 41.74 60.04 41.92 60.59 42.17 61.08 42.47 61.57 42.84 61.94 42.29 61.82 41.8 61.63 41.37 61.45 40.94 61.21 40.45 60.9 40.09 60.59 39.72 60.23 39.35 59.86 39.05 59.43 38.68 59 38.44 58.57 38.19 58.02 38.01 57.47 37.88 56.86 37.7 56.31 37.64 55.64" fill="#dadada" fill-rule="evenodd"/><polygon points="37.39 46.58 37.7 46.7 35.37 61.27 35.62 62.06 35.99 62.74 36.35 63.29 36.84 63.59 37.39 63.9 37.94 64.02 38.5 64.15 39.11 64.08 39.72 63.96 40.39 63.9 41.01 63.66 41.62 63.47 42.23 63.29 42.72 63.04 43.27 62.86 43.76 62.74 44.01 62.74 44.25 62.8 44.43 62.8 44.68 62.86 44.86 62.98 45.11 63.04 45.35 63.1 45.66 63.23 44.8 63.23 43.94 63.29 43.21 63.47 42.54 63.66 41.86 63.9 41.25 64.15 40.64 64.45 40.09 64.7 39.48 64.88 38.92 65.06 38.31 65.19 37.64 65.19 36.97 65.12 36.23 64.94 35.5 64.57 34.58 64.15 37.39 46.58" fill="#fff" fill-rule="evenodd"/><polygon points="37.21 51.9 37.09 52.64 36.9 53.8 36.66 55.33 36.41 56.98 36.17 58.58 35.92 59.92 35.8 60.84 35.74 61.21 35.99 61.94 36.35 62.55 36.78 63.04 37.27 63.29 37.82 63.53 38.37 63.59 38.99 63.59 39.6 63.59 40.21 63.47 40.82 63.29 41.44 63.17 41.92 62.98 42.48 62.8 42.9 62.74 43.21 62.62 43.45 62.55 42.72 62.43 41.98 62.19 41.31 61.94 40.7 61.63 40.09 61.27 39.54 60.78 39.11 60.29 38.68 59.68 38.25 59.06 37.94 58.27 37.64 57.47 37.46 56.55 37.27 55.51 37.21 54.41 37.21 53.25 37.21 51.9" fill="#fff" fill-rule="evenodd"/><polygon points="49.76 49.33 50.44 48.48 50.98 47.74 51.59 47.19 52.13 46.76 52.61 46.45 53.15 46.21 53.56 46.09 53.62 46.08 53.62 46.03 53.76 46.06 54.03 46.03 54.03 46.12 54.17 46.15 54.47 46.27 54.9 46.39 55.33 46.52 55.76 46.64 56.25 46.76 56.8 46.82 57.35 46.95 57.9 47.01 58.51 47.01 59.06 47.01 59.74 46.88 60.35 46.76 60.96 46.52 61.63 46.27 64.51 64.7 64.08 64.94 63.53 65 62.98 65 62.37 64.88 61.76 64.7 61.08 64.45 60.41 64.21 59.61 63.9 58.88 63.66 58.15 63.41 57.41 63.16 56.62 62.98 55.82 62.8 55.08 62.74 54.35 62.74 54.03 62.79 54.03 62.86 53.49 62.98 53.02 63.1 52.48 63.35 51.93 63.59 51.39 63.96 50.85 64.45 50.3 65 49.76 65.55 49.76 49.33" fill="#fff" fill-rule="evenodd"/><polygon points="40.52 57.59 39.11 56.92 38.19 55.76 37.7 54.23 37.52 52.45 37.58 50.62 37.76 48.84 38.01 47.25 38.13 45.97 38.5 46.21 38.8 46.39 39.17 46.58 39.54 46.7 39.9 46.82 40.27 46.95 40.64 47.01 41.01 47.07 41.62 47.07 42.23 47.07 42.84 47.01 43.39 46.88 44.01 46.82 44.56 46.7 45.17 46.64 45.72 46.58 46.27 46.58 46.76 46.7 47.31 46.82 47.74 47.01 48.23 47.37 48.66 47.74 49.09 48.29 49.45 48.96 49.45 65.25 48.84 64.51 48.17 63.9 47.56 63.47 46.88 63.16 46.27 62.92 45.72 62.74 45.11 62.62 44.56 62.49 44.13 62.25 43.64 62.06 43.15 61.7 42.78 61.27 42.41 60.66 42.11 59.92 41.92 58.88 41.74 57.66 41.56 57.66 41.37 57.66 41.25 57.66 41.07 57.66 40.95 57.66 40.76 57.66 40.64 57.59 40.52 57.59" fill="#fff" fill-rule="evenodd"/><polygon points="52.46 31.43 57.92 33.64 54.67 41.62 62.36 44.28 60.44 50.19 52.61 47.53 43.6 71.01 38.43 69.24 47.14 45.61 39.02 42.51 41.53 36.89 49.36 39.7 52.46 31.43" fill="#d6301c" fill-rule="evenodd"/><polygon points="52.46 31.43 57.92 33.64 54.67 41.62 62.36 44.28 60.44 50.19 52.61 47.53 43.6 71.01 38.43 69.24 47.14 45.61 39.02 42.51 41.53 36.89 49.36 39.7 52.46 31.43" fill="none" stroke="#1d1d1b" stroke-miterlimit="22.93" stroke-width="0.5"/></g></g></g></g></svg>